<svg xmlns="http://www.w3.org/2000/svg" xmlns:xlink="http://www.w3.org/1999/xlink" version="1.1" x="0px" y="0px" viewBox="0 0 96 120" style="enable-background:new 0 0 96 96;" xml:space="preserve"><path d="M91.804,39.529l-11.449-1.372c-0.639-2.099-1.483-4.135-2.518-6.072l7.127-9.069c0.425-0.54,0.379-1.313-0.107-1.799  L74.783,11.144c-0.486-0.486-1.259-0.532-1.799-0.107l-9.067,7.126c-1.939-1.036-3.975-1.881-6.075-2.519L56.471,4.196  C56.389,3.514,55.81,3,55.122,3H40.878c-0.687,0-1.266,0.514-1.348,1.196l-1.372,11.449c-2.098,0.638-4.134,1.482-6.072,2.519  l-9.069-7.127c-0.541-0.425-1.313-0.379-1.799,0.107L11.144,21.217c-0.486,0.486-0.532,1.259-0.107,1.799l7.126,9.067  c-1.037,1.939-1.881,3.976-2.519,6.074L4.196,39.529C3.514,39.611,3,40.19,3,40.878v14.245c0,0.687,0.514,1.266,1.196,1.348  l11.449,1.372c0.639,2.099,1.483,4.135,2.518,6.072l-7.127,9.069c-0.425,0.54-0.379,1.313,0.107,1.799l10.073,10.073  c0.486,0.486,1.259,0.532,1.799,0.108l9.067-7.126c1.939,1.037,3.975,1.881,6.074,2.519l1.372,11.448  C39.611,92.486,40.19,93,40.878,93h14.245c0.687,0,1.266-0.514,1.348-1.196l1.372-11.449c2.099-0.639,4.135-1.483,6.072-2.518  l9.069,7.127c0.541,0.424,1.313,0.378,1.799-0.108l10.073-10.073c0.486-0.486,0.532-1.258,0.107-1.799l-7.126-9.067  c1.036-1.939,1.881-3.975,2.519-6.074l11.448-1.372C92.486,56.389,93,55.81,93,55.122V40.877C93,40.19,92.486,39.611,91.804,39.529z   M90.284,53.918L79.14,55.254c-0.548,0.066-1.002,0.457-1.148,0.989c-0.682,2.487-1.677,4.887-2.957,7.134  c-0.273,0.48-0.229,1.077,0.112,1.511l6.938,8.827l-8.369,8.369l-8.829-6.939c-0.434-0.341-1.032-0.385-1.511-0.112  c-2.245,1.28-4.644,2.275-7.132,2.958c-0.532,0.146-0.923,0.6-0.989,1.148l-1.336,11.146H42.082L40.746,79.14  c-0.066-0.548-0.457-1.002-0.989-1.148c-2.486-0.681-4.886-1.676-7.133-2.958c-0.48-0.273-1.077-0.229-1.511,0.112l-8.827,6.938  l-8.369-8.369l6.939-8.829c0.341-0.434,0.385-1.032,0.112-1.511c-1.28-2.244-2.275-4.644-2.958-7.132  c-0.146-0.532-0.6-0.923-1.148-0.989L5.716,53.918V42.082l11.144-1.336c0.548-0.066,1.002-0.457,1.148-0.989  c0.681-2.486,1.676-4.886,2.957-7.133c0.274-0.48,0.229-1.077-0.112-1.511l-6.938-8.827l8.369-8.369l8.829,6.939  c0.434,0.341,1.032,0.386,1.511,0.112c2.247-1.281,4.647-2.276,7.132-2.958c0.532-0.146,0.923-0.6,0.989-1.148l1.336-11.146h11.835  l1.336,11.144c0.066,0.548,0.457,1.002,0.989,1.148c2.487,0.682,4.887,1.677,7.134,2.957c0.48,0.274,1.077,0.229,1.511-0.112  l8.827-6.937l8.369,8.369l-6.939,8.829c-0.341,0.434-0.386,1.032-0.112,1.511c1.28,2.245,2.275,4.644,2.958,7.132  c0.146,0.532,0.6,0.923,1.148,0.989l11.145,1.336V53.918z M48.391,24.237c-6.346-0.106-12.355,2.269-16.917,6.683  c-4.562,4.414-7.132,10.341-7.237,16.688c-0.105,6.347,2.269,12.355,6.683,16.918c4.414,4.562,10.341,7.132,16.688,7.237  c0.134,0.002,0.268,0.003,0.402,0.003c6.198,0,12.05-2.366,16.515-6.687c4.562-4.414,7.132-10.341,7.236-16.688  c0.105-6.347-2.269-12.355-6.683-16.917C60.665,26.912,54.739,24.342,48.391,24.237z M69.048,48.346  c-0.092,5.622-2.369,10.871-6.41,14.781c-4.041,3.91-9.369,6.008-14.984,5.92c-5.622-0.092-10.872-2.369-14.782-6.41  s-6.012-9.362-5.92-14.985c0.093-5.622,2.369-10.871,6.41-14.781c3.956-3.827,9.138-5.923,14.628-5.923  c0.118,0,0.237,0.001,0.356,0.003c5.622,0.092,10.871,2.369,14.781,6.41C67.038,37.403,69.14,42.724,69.048,48.346z M48,32.077  c-1.306,0-12.761,0.127-12.761,4.519v22.807c0,4.392,11.455,4.519,12.761,4.519s12.761-0.127,12.761-4.519V36.601  c0-0.002,0-0.003,0-0.005C60.761,32.204,49.306,32.077,48,32.077z M58.046,51.81c-0.584,0.719-4.288,1.927-10.046,1.927  s-9.462-1.208-10.046-1.927v-4.959c3.473,1.457,9.149,1.517,10.046,1.517s6.572-0.06,10.046-1.517V51.81z M58.046,43.726  c-0.584,0.719-4.288,1.927-10.046,1.927s-9.462-1.208-10.046-1.927v-4.127c3.473,1.457,9.149,1.517,10.046,1.517  c0.896,0,6.572-0.06,10.046-1.517V43.726z M48,34.793c5.425,0,9.033,1.077,9.917,1.804C57.033,37.323,53.426,38.4,48,38.4  s-9.033-1.077-9.917-1.804C38.967,35.87,42.575,34.793,48,34.793z M48,61.207c-5.755,0-9.459-1.207-10.046-1.926v-4.345  c3.473,1.457,9.149,1.517,10.046,1.517s6.572-0.06,10.046-1.517v4.345C57.459,60,53.755,61.207,48,61.207z M48.972,43.428  c-0.043-0.749,0.529-1.39,1.278-1.433c0.711-0.041,1.412-0.102,2.085-0.183c0.744-0.088,1.42,0.443,1.509,1.187  c0.089,0.745-0.443,1.42-1.187,1.509c-0.728,0.087-1.485,0.153-2.251,0.197c-0.027,0.002-0.053,0.002-0.079,0.002  C49.612,44.708,49.013,44.15,48.972,43.428z M54.427,42.912c-0.186-0.726,0.251-1.466,0.977-1.653  c0.104-0.027,0.205-0.054,0.305-0.081c0.723-0.201,1.471,0.221,1.672,0.944c0.201,0.722-0.221,1.471-0.944,1.672  c-0.117,0.033-0.236,0.064-0.358,0.096c-0.113,0.029-0.227,0.043-0.339,0.043C55.136,43.933,54.584,43.526,54.427,42.912z   M54.427,50.449c-0.186-0.726,0.252-1.466,0.979-1.652c0.103-0.026,0.204-0.053,0.304-0.081c0.723-0.201,1.471,0.221,1.672,0.944  c0.201,0.722-0.221,1.471-0.944,1.672c-0.117,0.033-0.237,0.065-0.359,0.096c-0.113,0.029-0.226,0.043-0.338,0.043  C55.135,51.471,54.584,51.063,54.427,50.449z M57.381,57.351c0.201,0.722-0.223,1.471-0.945,1.671  c-0.117,0.032-0.236,0.064-0.358,0.095c-0.113,0.029-0.226,0.043-0.338,0.043c-0.605,0-1.157-0.408-1.314-1.022  c-0.186-0.726,0.252-1.466,0.979-1.652c0.104-0.027,0.205-0.054,0.305-0.081C56.432,56.205,57.181,56.628,57.381,57.351z   M49.16,50.942c-0.043-0.749,0.529-1.39,1.278-1.433c0.709-0.041,1.411-0.102,2.085-0.183c0.745-0.088,1.42,0.443,1.509,1.187  c0.089,0.745-0.443,1.42-1.187,1.509c-0.729,0.087-1.487,0.153-2.251,0.197c-0.026,0.002-0.053,0.002-0.079,0.002  C49.8,52.222,49.202,51.664,49.16,50.942z M54.032,58.203c0.089,0.745-0.443,1.42-1.187,1.509c-0.73,0.087-1.488,0.153-2.251,0.197  c-0.026,0.002-0.053,0.002-0.079,0.002c-0.714,0-1.313-0.558-1.354-1.28c-0.043-0.749,0.529-1.39,1.278-1.433  c0.708-0.041,1.41-0.102,2.085-0.183C53.268,56.927,53.943,57.458,54.032,58.203z"/></svg>