<svg xmlns="http://www.w3.org/2000/svg" viewBox="0 0 64 80" fill="none" x="0px" y="0px"><path fill-rule="evenodd" clip-rule="evenodd" d="M33.1813 22.1356C32.4051 21.9548 31.5949 21.9548 30.8187 22.1356L21.8187 24.2318C19.6671 24.7329 18 26.59 18 28.8911V35.6208C18 41.5571 21.4889 46.9359 26.9547 49.6942L31.0989 51.7855C31.6656 52.0715 32.3344 52.0715 32.9011 51.7855L37.0453 49.6942C42.5111 46.9359 46 41.5571 46 35.6208V28.8911C46 26.59 44.3329 24.7329 42.1813 24.2318L33.1813 22.1356ZM22.7261 28.1275L31.7261 26.0313C31.9053 25.9896 32.0947 25.9896 32.2739 26.0313L41.2739 28.1275C41.7933 28.2485 42 28.6273 42 28.8911V35.6208C42 39.9418 39.4582 43.9961 35.2432 46.1231L32 47.7598L28.7568 46.1231C24.5419 43.9961 22 39.9418 22 35.6208V28.8911C22 28.6273 22.2067 28.2485 22.7261 28.1275Z" fill="#0b0b0b"/><path fill-rule="evenodd" clip-rule="evenodd" d="M24.516 6C26.1288 3.59058 28.8771 2 32 2C35.1229 2 37.8712 3.59058 39.484 6H41.5C44.0176 6 46.14 7.69149 46.793 10H48C52.4183 10 56 13.5817 56 18V54C56 58.4183 52.4183 62 48 62H16C11.5817 62 8 58.4183 8 54V18C8 13.5817 11.5817 10 16 10H17.207C17.86 7.69149 19.9824 6 22.5 6H24.516ZM41.5 17C43.6373 17 45.4899 15.7808 46.4003 14H48C50.2091 14 52 15.7909 52 18V54C52 56.2091 50.2091 58 48 58H16C13.7909 58 12 56.2091 12 54V18C12 15.7909 13.7909 14 16 14H17.5997C18.5101 15.7808 20.3627 17 22.5 17H41.5ZM32 6C30.0084 6 28.2848 7.16429 27.4802 8.85818C27.1489 9.55558 26.4457 10 25.6736 10H22.5C21.6716 10 21 10.6716 21 11.5C21 12.3284 21.6716 13 22.5 13H41.5C42.3284 13 43 12.3284 43 11.5C43 10.6716 42.3284 10 41.5 10H38.3264C37.5543 10 36.8511 9.55558 36.5198 8.85819C35.7152 7.16429 33.9916 6 32 6Z" fill="#0b0b0b"/></svg>