<svg xmlns:dc="http://purl.org/dc/elements/1.1/" xmlns:cc="http://creativecommons.org/ns#" xmlns:rdf="http://www.w3.org/1999/02/22-rdf-syntax-ns#" xmlns:svg="http://www.w3.org/2000/svg" xmlns="http://www.w3.org/2000/svg" xmlns:sodipodi="http://sodipodi.sourceforge.net/DTD/sodipodi-0.dtd" xmlns:inkscape="http://www.inkscape.org/namespaces/inkscape" viewBox="0 0 100 125" version="1.1" x="0px" y="0px"><g transform="translate(0,-952.3622)"><path style="color:#000000;font-style:normal;font-variant:normal;font-weight:normal;font-stretch:normal;font-size:medium;line-height:normal;font-family:sans-serif;text-indent:0;text-align:start;text-decoration:none;text-decoration-line:none;text-decoration-style:solid;text-decoration-color:#000000;letter-spacing:normal;word-spacing:normal;text-transform:none;direction:ltr;block-progression:tb;writing-mode:lr-tb;baseline-shift:baseline;text-anchor:start;white-space:normal;clip-rule:nonzero;display:inline;overflow:visible;visibility:visible;opacity:1;isolation:auto;mix-blend-mode:normal;color-interpolation:sRGB;color-interpolation-filters:linearRGB;solid-color:#000000;solid-opacity:1;fill:#000000;fill-opacity:1;fill-rule:nonzero;stroke:none;stroke-width:1.5;stroke-linecap:round;stroke-linejoin:round;stroke-miterlimit:4;stroke-dasharray:none;stroke-dashoffset:0;stroke-opacity:1;color-rendering:auto;image-rendering:auto;shape-rendering:auto;text-rendering:auto;enable-background:accumulate" d="m 37.606336,977.60045 c -7.759341,7.99268 -23.278022,23.97805 -23.278022,23.97805 -1.073527,1.0762 0.56967,2.6717 1.613763,1.567 l 22.159226,-22.82713 22.57804,46.51213 c 0.34171,0.7011 1.275955,0.8501 1.818778,0.29 l 21.230799,-21.9776 0,21.1955 c -0.02155,1.521 2.270858,1.521 2.24931,0 l 0,-23.9749 c 0.01,-0.6349 -0.507246,-1.1459 -1.142229,-1.1423 -7.696058,0.044 -15.435194,0.018 -23.146226,0.018 -1.524814,-0.025 -1.524814,2.2748 0,2.2493 l 20.513244,0 -20.205721,20.9145 c 0,0 -15.048122,-31.00618 -22.572183,-46.50927 -0.422205,-0.86994 -1.288951,-0.83904 -1.818779,-0.29328 z"/></g></svg>